<svg xmlns="http://www.w3.org/2000/svg" viewBox="0 21.5 370.25 66.4000015258789" data-asc="1.303" width="370.25" height="66.4000015258789"><defs/><g fill="#ffe655"><g transform="translate(0, 0)"><path d="M19.45 65.40Q13.50 65.40 9.10 63.22Q4.70 61.05 2.35 57.05Q0 53.05 0 47.75Q0 40.40 2.78 34.70Q5.55 29.00 10.30 25.87Q15.05 22.75 20.85 22.75Q26.25 22.75 29.05 25.52Q31.85 28.30 31.85 32.85Q31.85 35.90 30.78 37.75Q29.70 39.60 27.70 39.60Q26.30 39.60 25.50 38.95Q24.70 38.30 24.70 37.05Q24.70 36.60 24.90 35.40Q25.20 33.90 25.20 33.00Q25.20 28.45 20.35 28.45Q17.05 28.45 14.05 30.60Q11.05 32.75 9.20 36.92Q7.35 41.10 7.35 46.85Q7.35 52.85 10.70 56.12Q14.05 59.40 20.60 59.40Q23.85 59.40 27.18 58.57Q30.50 57.75 34.55 56.05Q35.30 55.75 35.80 55.75Q36.60 55.75 37 56.35Q37.40 56.95 37.40 57.90Q37.40 60.95 34.10 62.40Q30.55 63.95 26.73 64.67Q22.90 65.40 19.45 65.40ZM59.00 49.80Q59.65 49.80 60.00 50.45Q60.35 51.10 60.35 52.10Q60.35 54.50 58.90 54.95Q55.90 56.00 52.30 56.15Q51.35 60.35 48.55 62.87Q45.75 65.40 42.20 65.40Q39.20 65.40 37.08 63.95Q34.95 62.50 33.85 60.10Q32.75 57.70 32.75 54.90Q32.75 51.10 34.20 48.12Q35.65 45.15 38.20 43.47Q40.75 41.80 43.85 41.80Q47.65 41.80 49.98 44.42Q52.30 47.05 52.70 50.90Q55.05 50.75 58.30 49.90Q58.70 49.80 59.00 49.80M42.60 60.10Q44.20 60.10 45.38 58.80Q46.55 57.50 46.95 55.05Q45.40 54.00 44.58 52.30Q43.75 50.60 43.75 48.70Q43.75 47.90 43.90 47.10L43.65 47.10Q41.65 47.10 40.33 49.02Q39.00 50.95 39.00 54.45Q39.00 57.20 40.08 58.65Q41.15 60.10 42.60 60.10ZM65.35 66.50Q62.75 66.50 61.38 65.30Q60.00 64.10 60.00 62.60Q60.00 61.30 60.95 60.35Q61.90 59.40 63.75 59.40Q64.40 59.40 65.28 59.52Q66.15 59.65 66.60 59.70Q66.55 58.40 66.03 57.25Q65.50 56.10 64.70 55.02Q63.90 53.95 63.20 53.15Q61.65 56.10 60.13 58.05Q58.60 60.00 56.80 61.75Q55.90 62.65 54.90 62.65Q54.10 62.65 53.60 62.07Q53.10 61.50 53.10 60.65Q53.10 59.65 53.80 58.80L54.45 58.00Q57.20 54.60 58.60 52.40Q59.45 50.95 60.60 48.52Q61.75 46.10 62.85 43.50Q63.80 41.30 66.80 41.30Q68.20 41.30 68.75 41.55Q69.30 41.80 69.30 42.35Q69.30 42.65 69.10 43.30Q68.90 43.95 68.55 44.60Q67.65 46.40 67.65 47.65Q67.65 48.40 68.18 49.30Q68.70 50.20 69.80 51.55Q71.40 53.65 72.23 55.12Q73.05 56.60 73.05 58.35Q73.05 58.85 72.95 59.75Q75.40 58.80 78.70 54.70Q79.30 54.00 80.05 54.00Q80.70 54.00 81.08 54.60Q81.45 55.20 81.45 56.25Q81.45 58.15 80.50 59.35Q78 62.45 75.73 63.57Q73.45 64.70 70.10 64.80Q68.10 66.50 65.35 66.50ZM99.70 54.00Q100.35 54.00 100.72 54.60Q101.10 55.20 101.10 56.25Q101.10 58.25 100.15 59.35Q98 62.00 95.45 63.70Q92.90 65.40 89.60 65.40Q79.40 65.40 79.40 51.05Q79.40 48.85 79.55 46.60L77.60 46.60Q76.10 46.60 75.58 46.05Q75.05 45.50 75.05 44.30Q75.05 41.50 77.30 41.50L80.15 41.50Q81 36.00 82.75 31.45Q84.50 26.90 86.97 24.20Q89.45 21.50 92.30 21.50Q94.40 21.50 95.60 23.35Q96.80 25.20 96.80 28.00Q96.80 35.75 90.30 41.50L95.90 41.50Q96.70 41.50 97.05 41.85Q97.40 42.20 97.40 43.15Q97.40 46.60 91.75 46.60L85.65 46.60Q85.55 49.10 85.55 50.50Q85.55 55.70 86.78 57.80Q88 59.90 90.65 59.90Q92.80 59.90 94.45 58.60Q96.10 57.30 98.35 54.70Q98.95 54.00 99.70 54.00M90.95 26.30Q90.20 26.30 89.28 28.17Q88.35 30.05 87.53 33.37Q86.70 36.70 86.15 40.75Q89.10 38.20 90.58 35.02Q92.05 31.85 92.05 29.25Q92.05 26.30 90.95 26.30ZM103.20 65.40Q100.10 65.40 98.25 63.15Q96.40 60.90 96.40 57.25Q96.40 53.25 98.25 49.67Q100.10 46.10 103.18 43.92Q106.25 41.75 109.70 41.75Q110.80 41.75 111.18 42.17Q111.55 42.60 111.80 43.70Q112.85 43.50 114 43.50Q116.45 43.50 116.45 45.25Q116.45 46.30 115.70 50.25Q114.55 56.00 114.55 58.25Q114.55 59.00 114.93 59.45Q115.30 59.90 115.90 59.90Q116.85 59.90 118.20 58.67Q119.55 57.45 121.85 54.70Q122.45 54.00 123.20 54.00Q123.85 54.00 124.23 54.60Q124.60 55.20 124.60 56.25Q124.60 58.25 123.65 59.35Q121.60 61.90 119.30 63.65Q117 65.40 114.85 65.40Q113.20 65.40 111.83 64.27Q110.45 63.15 109.75 61.20Q107.15 65.40 103.20 65.40M105 60.35Q106.10 60.35 107.10 59.05Q108.10 57.75 108.55 55.60L110.40 46.40Q108.30 46.45 106.53 47.97Q104.75 49.50 103.70 52.00Q102.65 54.50 102.65 57.30Q102.65 58.85 103.28 59.60Q103.90 60.35 105 60.35ZM172.55 35.35Q172.55 39.60 170.35 43.15Q168.15 46.70 163.95 48.95Q159.75 51.20 153.95 51.60L151.80 63.65Q150.55 70.60 145 70.60Q141.95 70.60 139.38 68.80Q136.80 67.00 135.25 63.30Q133.70 59.60 133.70 54.20Q133.70 44.05 136.97 36.97Q140.25 29.90 145.78 26.37Q151.30 22.85 157.95 22.85Q162.65 22.85 165.93 24.50Q169.20 26.15 170.88 28.97Q172.55 31.80 172.55 35.35M154.85 46.45Q165.10 45.15 165.10 35.80Q165.10 32.50 162.93 30.42Q160.75 28.35 156.20 28.35Q151.05 28.35 147.22 31.60Q143.40 34.85 141.33 40.62Q139.25 46.40 139.25 53.80Q139.25 56.90 139.88 59.30Q140.50 61.70 141.47 63.02Q142.45 64.35 143.35 64.35Q144.60 64.35 145.25 60.90L146.90 51.45Q144.95 51.15 145.20 51.20Q143.70 50.95 143.25 50.27Q142.80 49.60 142.80 48.55Q142.80 47.45 143.43 46.80Q144.05 46.15 145.15 46.15Q145.65 46.15 145.90 46.20Q147.10 46.40 147.75 46.45Q148.40 42.55 149.60 36.00Q149.90 34.30 150.98 33.57Q152.05 32.85 153.50 32.85Q155.15 32.85 155.88 33.47Q156.60 34.10 156.60 35.45Q156.60 36.25 156.50 36.75L154.85 46.45ZM180.20 65.40Q177.10 65.40 175.25 63.15Q173.40 60.90 173.40 57.25Q173.40 53.25 175.25 49.67Q177.10 46.10 180.18 43.92Q183.25 41.75 186.70 41.75Q187.80 41.75 188.18 42.17Q188.55 42.60 188.80 43.70Q189.85 43.50 191 43.50Q193.45 43.50 193.45 45.25Q193.45 46.30 192.70 50.25Q191.55 56.00 191.55 58.25Q191.55 59.00 191.93 59.45Q192.30 59.90 192.90 59.90Q193.85 59.90 195.20 58.67Q196.55 57.45 198.85 54.70Q199.45 54.00 200.20 54.00Q200.85 54.00 201.23 54.60Q201.60 55.20 201.60 56.25Q201.60 58.25 200.65 59.35Q198.60 61.90 196.30 63.65Q194 65.40 191.85 65.40Q190.20 65.40 188.83 64.27Q187.45 63.15 186.75 61.20Q184.15 65.40 180.20 65.40M182 60.35Q183.10 60.35 184.10 59.05Q185.10 57.75 185.55 55.60L187.40 46.40Q185.30 46.45 183.53 47.97Q181.75 49.50 180.70 52.00Q179.65 54.50 179.65 57.30Q179.65 58.85 180.28 59.60Q180.90 60.35 182 60.35ZM219.85 54.00Q220.50 54.00 220.88 54.60Q221.25 55.20 221.25 56.25Q221.25 58.25 220.30 59.35Q218.15 62.00 215.60 63.70Q213.05 65.40 209.75 65.40Q199.55 65.40 199.55 51.05Q199.55 48.85 199.70 46.60L197.75 46.60Q196.25 46.60 195.72 46.05Q195.20 45.50 195.20 44.30Q195.20 41.50 197.45 41.50L200.30 41.50Q201.15 36.00 202.90 31.45Q204.65 26.90 207.13 24.20Q209.60 21.50 212.45 21.50Q214.55 21.50 215.75 23.35Q216.95 25.20 216.95 28.00Q216.95 35.75 210.45 41.50L216.05 41.50Q216.85 41.50 217.20 41.85Q217.55 42.20 217.55 43.15Q217.55 46.60 211.90 46.60L205.80 46.60Q205.70 49.10 205.70 50.50Q205.70 55.70 206.93 57.80Q208.15 59.90 210.80 59.90Q212.95 59.90 214.60 58.60Q216.25 57.30 218.50 54.70Q219.10 54.00 219.85 54.00M211.10 26.30Q210.35 26.30 209.43 28.17Q208.50 30.05 207.68 33.37Q206.85 36.70 206.30 40.75Q209.25 38.20 210.72 35.02Q212.20 31.85 212.20 29.25Q212.20 26.30 211.10 26.30ZM223.35 65.40Q220.25 65.40 218.40 63.15Q216.55 60.90 216.55 57.25Q216.55 53.25 218.40 49.67Q220.25 46.10 223.33 43.92Q226.40 41.75 229.85 41.75Q230.95 41.75 231.33 42.17Q231.70 42.60 231.95 43.70Q233 43.50 234.15 43.50Q236.60 43.50 236.60 45.25Q236.60 46.30 235.85 50.25Q234.70 56.00 234.70 58.25Q234.70 59.00 235.08 59.45Q235.45 59.90 236.05 59.90Q237 59.90 238.35 58.67Q239.70 57.45 242 54.70Q242.60 54.00 243.35 54.00Q244 54.00 244.38 54.60Q244.75 55.20 244.75 56.25Q244.75 58.25 243.80 59.35Q241.75 61.90 239.45 63.65Q237.15 65.40 235 65.40Q233.35 65.40 231.98 64.27Q230.60 63.15 229.90 61.20Q227.30 65.40 223.35 65.40M225.15 60.35Q226.25 60.35 227.25 59.05Q228.25 57.75 228.70 55.60L230.55 46.40Q228.45 46.45 226.68 47.97Q224.90 49.50 223.85 52.00Q222.80 54.50 222.80 57.30Q222.80 58.85 223.43 59.60Q224.05 60.35 225.15 60.35ZM266.30 54.10Q266.95 54.10 267.32 54.72Q267.70 55.35 267.70 56.30Q267.70 57.45 267.35 58.10Q267 58.75 266.25 59.25Q261.95 62.15 259.95 63.55L256.75 65.70Q254.85 76.05 251.78 81.97Q248.70 87.90 243.95 87.90Q241.40 87.90 239.80 86.32Q238.20 84.75 238.20 82.20Q238.20 78.65 241 74.57Q243.80 70.50 251.50 64.55L251.80 62.60Q250.95 63.95 249.58 64.67Q248.20 65.40 246.85 65.40Q243.75 65.40 241.90 63.15Q240.05 60.90 240.05 57.25Q240.05 53.25 241.90 49.67Q243.75 46.10 246.83 43.92Q249.90 41.75 253.35 41.75Q254.45 41.75 254.83 42.17Q255.20 42.60 255.45 43.70Q256.40 43.50 257.65 43.50Q258.90 43.50 259.43 43.87Q259.95 44.25 259.95 45.35Q259.95 45.95 259.90 46.30Q259.70 47.85 258.65 54.15Q258.45 55.35 258.23 56.77Q258 58.20 257.75 59.80Q261.60 56.80 265.15 54.50Q265.80 54.10 266.30 54.10M248.65 60.35Q249.80 60.35 250.85 58.95Q251.90 57.55 252.35 54.95L253.95 46.40Q251.90 46.45 250.15 47.97Q248.40 49.50 247.35 52.00Q246.30 54.50 246.30 57.30Q246.30 58.85 246.93 59.60Q247.55 60.35 248.65 60.35M244.50 83.05Q245.75 83.05 247.33 80.05Q248.90 77.05 250.35 70.50Q246.50 73.80 244.80 76.45Q243.10 79.10 243.10 81.10Q243.10 81.95 243.43 82.50Q243.75 83.05 244.50 83.05ZM290.15 49.80Q290.80 49.80 291.15 50.45Q291.50 51.10 291.50 52.10Q291.50 54.50 290.05 54.95Q287.05 56.00 283.45 56.15Q282.50 60.35 279.70 62.87Q276.90 65.40 273.35 65.40Q270.35 65.40 268.23 63.95Q266.10 62.50 265 60.10Q263.90 57.70 263.90 54.90Q263.90 51.10 265.35 48.12Q266.80 45.15 269.35 43.47Q271.90 41.80 275 41.80Q278.80 41.80 281.13 44.42Q283.45 47.05 283.85 50.90Q286.20 50.75 289.45 49.90Q289.85 49.80 290.15 49.80M273.75 60.10Q275.35 60.10 276.52 58.80Q277.70 57.50 278.10 55.05Q276.55 54.00 275.73 52.30Q274.90 50.60 274.90 48.70Q274.90 47.90 275.05 47.10L274.80 47.10Q272.80 47.10 271.48 49.02Q270.15 50.95 270.15 54.45Q270.15 57.20 271.23 58.65Q272.30 60.10 273.75 60.10M275.45 38.55Q274.75 38.55 274.23 38.02Q273.70 37.50 273.70 36.75Q273.70 36.40 273.95 35.80L278.60 25.40Q279.05 24.40 279.77 23.92Q280.50 23.45 281.40 23.45Q282.65 23.45 283.63 24.35Q284.60 25.25 284.60 26.60Q284.60 28.00 283.50 29.40L277.05 37.70Q276.40 38.55 275.45 38.55ZM290.75 65.40Q288.85 65.40 288.07 63.40Q287.30 61.40 287.30 57.00Q287.30 50.50 289.15 44.65Q289.60 43.20 290.63 42.52Q291.65 41.85 293.50 41.85Q294.50 41.85 294.90 42.10Q295.30 42.35 295.30 43.05Q295.30 43.85 294.55 46.65Q294.05 48.65 293.75 50.15Q293.45 51.65 293.25 53.85Q294.90 49.55 296.95 46.85Q299 44.15 300.98 43.00Q302.95 41.85 304.60 41.85Q307.85 41.85 307.85 45.10Q307.85 47.05 306.75 52.15Q305.80 56.50 305.80 57.90Q305.80 59.90 307.25 59.90Q308.25 59.90 309.63 58.67Q311 57.45 313.30 54.70Q313.90 54.00 314.65 54.00Q315.30 54.00 315.68 54.60Q316.05 55.20 316.05 56.25Q316.05 58.25 315.10 59.35Q312.95 62.00 310.48 63.70Q308 65.40 304.85 65.40Q302.30 65.40 301 63.92Q299.70 62.45 299.70 59.65Q299.70 58.25 300.40 54.65Q301.05 51.50 301.05 50.30Q301.05 49.50 300.50 49.50Q299.85 49.50 298.68 51.17Q297.50 52.85 296.28 55.60Q295.05 58.35 294.30 61.40Q293.75 63.75 293.03 64.57Q292.30 65.40 290.75 65.40ZM318.55 38.55Q316.45 38.55 315.40 37.57Q314.35 36.60 314.35 34.85Q314.35 33.10 315.73 31.92Q317.10 30.75 319.15 30.75Q321 30.75 322.15 31.65Q323.30 32.55 323.30 34.20Q323.30 36.20 322 37.37Q320.70 38.55 318.55 38.55M318.15 65.40Q314.90 65.40 313.43 63.10Q311.95 60.80 311.95 57.00Q311.95 54.75 312.53 51.22Q313.10 47.70 314 44.65Q314.45 43.05 315.20 42.45Q315.95 41.85 317.60 41.85Q320.15 41.85 320.15 43.55Q320.15 44.80 319.20 49.35Q318 54.85 318 56.80Q318 58.30 318.40 59.10Q318.80 59.90 319.75 59.90Q320.65 59.90 322 58.65Q323.35 57.40 325.60 54.70Q326.20 54.00 326.95 54.00Q327.60 54.00 327.98 54.60Q328.35 55.20 328.35 56.25Q328.35 58.25 327.40 59.35Q322.45 65.40 318.15 65.40ZM333.85 65.40Q328.95 65.40 326.23 62.62Q323.50 59.85 323.50 55.30Q323.50 51.25 325.10 48.20Q326.70 45.15 329.25 43.50Q331.80 41.85 334.60 41.85Q337.35 41.85 338.88 43.47Q340.40 45.10 340.40 47.65Q340.40 49.75 339.48 51.20Q338.55 52.65 337.05 52.65Q336.10 52.65 335.53 52.20Q334.95 51.75 334.95 50.95Q334.95 50.60 335.05 50.15Q335.15 49.70 335.20 49.50Q335.45 48.75 335.45 48.10Q335.45 47.45 335.13 47.10Q334.80 46.75 334.20 46.75Q333.05 46.75 332.05 47.77Q331.05 48.80 330.45 50.55Q329.85 52.30 329.85 54.40Q329.85 60.20 334.90 60.20Q336.95 60.20 339.33 58.82Q341.70 57.45 344.00 54.70Q344.60 54.00 345.35 54.00Q346.00 54.00 346.38 54.60Q346.75 55.20 346.75 56.25Q346.75 58.15 345.80 59.35Q343.45 62.25 340.18 63.82Q336.90 65.40 333.85 65.40ZM348.85 65.40Q345.75 65.40 343.90 63.15Q342.05 60.90 342.05 57.25Q342.05 53.25 343.90 49.67Q345.75 46.10 348.82 43.92Q351.90 41.75 355.35 41.75Q356.45 41.75 356.82 42.17Q357.20 42.60 357.45 43.70Q358.50 43.50 359.65 43.50Q362.10 43.50 362.10 45.25Q362.10 46.30 361.35 50.25Q360.20 56.00 360.20 58.25Q360.20 59.00 360.57 59.45Q360.95 59.90 361.55 59.90Q362.50 59.90 363.85 58.67Q365.20 57.45 367.50 54.70Q368.10 54.00 368.85 54.00Q369.50 54.00 369.88 54.60Q370.25 55.20 370.25 56.25Q370.25 58.25 369.30 59.35Q367.25 61.90 364.95 63.65Q362.65 65.40 360.50 65.40Q358.85 65.40 357.48 64.27Q356.10 63.15 355.40 61.20Q352.80 65.40 348.85 65.40M350.65 60.35Q351.75 60.35 352.75 59.05Q353.75 57.75 354.20 55.60L356.05 46.40Q353.95 46.45 352.18 47.97Q350.40 49.50 349.35 52.00Q348.30 54.50 348.30 57.30Q348.30 58.85 348.93 59.60Q349.55 60.35 350.65 60.35Z"/></g></g></svg>