<svg xmlns="http://www.w3.org/2000/svg" viewBox="0 6.150000095367432 271.54998779296875 66.79999542236328" data-asc="1.009" width="271.54998779296875" height="66.79999542236328"><defs/><g fill="#ffdf00"><g transform="translate(0, 0)"><path d="M18.15 21.35Q18.15 30.05 18.80 36.40Q18.80 36.85 19.45 42.52Q20.10 48.20 20.10 49.60Q20.10 51.00 19.33 52.22Q18.55 53.45 17.10 53.45Q13.50 53.45 9.47 49.92Q5.45 46.40 2.73 40.97Q0 35.55 0 30.60Q0 24.20 2.25 19.10Q4.50 14.00 9.20 10.85Q13.90 7.70 20.40 7.70Q26.65 7.70 29.65 13.20Q31.15 15.90 31.15 18.72Q31.15 21.55 30.53 24.20Q29.90 26.85 28.85 28.77Q27.80 30.70 26.73 32.25Q25.65 33.80 24.45 34.90Q22.40 36.75 21.78 37.10Q21.15 37.45 20.80 37.45Q19.95 37.45 19.95 36.40Q19.95 35.85 20.70 35.50Q26.65 31.30 26.65 24.85Q26.65 21.55 25.60 19.10Q24.55 16.65 23.35 15.27Q22.15 13.90 20.13 12.97Q18.10 12.05 15.55 12.05Q9.55 12.05 6.13 16.37Q2.70 20.70 2.70 26.95Q2.70 31.40 4.95 36.05Q7.20 40.70 10.53 43.67Q13.85 46.65 16.90 46.65Q17.55 46.65 17.70 45.30Q17.65 44.30 17.15 41.05Q16.00 33 16.00 22.40Q16.00 21.40 16.48 20.70Q16.95 20.00 17.85 20.00Q18.15 20.00 18.15 21.35ZM36.90 44.05L36.70 45.45Q36.70 46.35 37.48 47.32Q38.25 48.30 39.30 48.30Q40.10 48.30 40.60 47.95Q41.70 47.20 41.98 46.92Q42.25 46.65 42.88 46.65Q43.50 46.65 43.50 47.10Q43.50 47.60 41.15 50.25Q40.40 51.10 38.95 52.05Q37.50 53.00 36.38 53.00Q35.25 53.00 34.68 52.62Q34.10 52.25 33.85 51.45Q33.55 50.35 33.55 48.75Q33.55 48.55 33.30 48.55Q33.05 48.55 32.15 49.55Q29.35 52.45 27.63 52.45Q25.90 52.45 24.98 51.55Q24.05 50.65 24.05 49.25Q24.05 46.80 25.35 44.57Q26.65 42.35 28.45 41.00Q32.45 38.05 34.65 38.05Q37.95 38.15 37.95 40.40Q37.95 41.20 37.25 41.97Q36.55 42.75 35.95 42.75Q35.35 42.75 34.30 41.70Q33.25 40.65 32.00 40.65Q30.75 40.65 29.95 41.67Q29.15 42.70 29.15 44.30Q29.15 46.90 31.90 46.90Q33.00 46.90 33.73 46.35Q34.45 45.80 34.75 45.15Q35.60 43.45 36.30 43.45Q36.90 43.45 36.90 44.05ZM33.40 35.10Q33.40 34.10 35 33.60Q37.45 32.55 43 30.35Q44 22.75 46 22.75Q47.30 22.75 47.30 26.90Q47.30 28.10 47.25 28.70Q54.85 25.80 57.45 25.15Q60.05 24.50 61.60 24.50Q63.95 24.50 63.95 26.20Q63.95 26.75 63.25 27.10Q60.15 28.65 59.40 28.65Q59.25 28.65 58.90 28.42Q58.55 28.20 58.10 28.20Q57.65 28.20 56.25 28.55Q53.40 29.30 46.90 31.45Q46.30 35.35 45.15 37.05Q45.35 42.75 46.65 44.75Q47.25 45.70 48.38 46.40Q49.50 47.10 51.15 47.10Q52.80 47.10 54.40 45.60Q54.70 45.30 54.90 45.30Q55.30 45.30 55.30 45.95Q55.30 48.05 52.50 50.17Q49.70 52.30 47.15 52.30Q42.10 52.30 42.10 44.10Q42.10 38.95 42.70 33Q38.55 34.60 36.58 35.60Q34.60 36.60 34.25 36.60Q33.90 36.60 33.65 36.10Q33.40 35.60 33.40 35.10ZM66.70 44.05L66.50 45.45Q66.50 46.35 67.28 47.32Q68.05 48.30 69.10 48.30Q69.90 48.30 70.40 47.95Q71.50 47.20 71.78 46.92Q72.05 46.65 72.67 46.65Q73.30 46.65 73.30 47.10Q73.30 47.60 70.95 50.25Q70.20 51.10 68.75 52.05Q67.30 53.00 66.17 53.00Q65.05 53.00 64.47 52.62Q63.90 52.25 63.65 51.45Q63.35 50.35 63.35 48.75Q63.35 48.55 63.10 48.55Q62.85 48.55 61.95 49.55Q59.15 52.45 57.43 52.45Q55.70 52.45 54.77 51.55Q53.85 50.65 53.85 49.25Q53.85 46.80 55.15 44.57Q56.45 42.35 58.25 41.00Q62.25 38.05 64.45 38.05Q67.75 38.15 67.75 40.40Q67.75 41.20 67.05 41.97Q66.35 42.75 65.75 42.75Q65.15 42.75 64.10 41.70Q63.05 40.65 61.80 40.65Q60.55 40.65 59.75 41.67Q58.95 42.70 58.95 44.30Q58.95 46.90 61.70 46.90Q62.80 46.90 63.53 46.35Q64.25 45.80 64.55 45.15Q65.40 43.45 66.10 43.45Q66.70 43.45 66.70 44.05ZM82.65 55.30Q81.10 57.60 80.65 59.40Q80.20 61.20 80.20 63.70Q80.20 66.20 81.55 66.35Q82.70 66.35 82.70 59.25Q82.70 56.80 82.65 55.30M82.65 53.55Q82.55 51.95 82.55 48.65Q82.45 48.65 81.83 49.27Q81.20 49.90 80.42 50.62Q79.65 51.35 78.47 51.97Q77.30 52.60 75.75 52.60Q74.20 52.60 73.22 51.65Q72.25 50.70 72.25 49.10Q72.25 45.65 75.63 41.97Q79 38.30 83 38.30Q84.25 38.30 85.03 38.87Q85.80 39.45 85.80 40.35Q85.80 41.15 85.20 41.85Q84.15 43.05 82.55 43.05Q81.95 43.05 81.95 42.70Q81.95 42.50 82.08 42.25Q82.20 42.00 82.20 41.60Q82.20 40.60 81.25 40.60Q79.70 40.60 78.65 41.95Q77.60 43.30 77.60 44.60Q77.60 45.90 78.22 46.52Q78.85 47.15 79.65 47.15Q80.45 47.15 81.50 46.40Q82.55 45.65 82.85 44.70Q83.20 43.40 84.40 43.40Q84.85 43.40 84.85 44.07Q84.85 44.75 84.53 45.92Q84.20 47.10 84.08 48.02Q83.95 48.95 83.95 51.95Q87 48.35 89.50 46.05Q90.05 45.50 90.60 45.50Q91.15 45.50 91.15 45.87Q91.15 46.25 90.60 46.75Q86.25 50.70 84 53.50Q84.10 57.10 84.10 59.35Q84.10 65.50 83.17 69.22Q82.25 72.95 79.65 72.95Q78 72.95 77.10 71.38Q76.20 69.80 76.20 67.10Q76.20 61.65 82.65 53.55ZM99.10 45.20Q96.75 45.20 95.40 44.00Q94.05 42.80 93.85 40.95Q93.05 41.55 93.05 43.17Q93.05 44.80 93.98 46.02Q94.90 47.25 96.28 47.25Q97.65 47.25 98.38 46.55Q99.10 45.85 99.10 45.20M101.05 41.85Q101.20 42.30 101.43 42.30Q101.65 42.30 102.20 42.02Q102.75 41.75 103.15 41.75Q103.55 41.75 103.55 42.25Q103.55 42.75 102.48 43.90Q101.40 45.05 100.65 45.05Q99.60 47.90 97.17 50.32Q94.75 52.75 92.20 52.75Q90.40 52.75 89.20 51.57Q88 50.40 88 48.12Q88 45.85 89.90 43.17Q91.80 40.50 93.80 40.50L93.80 40.30Q93.80 39.20 94.55 38.52Q95.30 37.85 96.40 37.85Q99.80 37.85 101.05 41.85ZM102.45 46.15Q102.45 45.35 104 43.52Q105.55 41.70 106.53 41.70Q107.50 41.70 107.98 42.45Q108.45 43.20 108.55 44.10Q108.65 45.00 109.13 45.75Q109.60 46.50 110.53 46.50Q111.45 46.50 112.18 45.67Q112.90 44.85 113.35 43.82Q113.80 42.80 114.55 41.97Q115.30 41.15 116.03 41.15Q116.75 41.15 117.05 41.75Q120.15 48.40 123.35 48.40Q123.85 48.40 124.25 48.25Q124.65 48.10 124.85 48.10Q125.45 48.10 125.45 49.05Q125.45 50.75 123.68 52.10Q121.90 53.45 120.05 53.45Q118.20 53.45 116.93 52.25Q115.65 51.05 115.18 49.77Q114.70 48.50 114.48 47.30Q114.25 46.10 114 46.10Q113.60 46.10 112.43 47.67Q111.25 49.25 109.78 50.85Q108.30 52.45 107.15 52.45Q105.95 52.30 105.25 51.27Q104.55 50.25 104.35 49.15Q103.90 46.15 102.45 46.15ZM125.43 34.90Q125.43 34.90 125.04 34.47Q124.65 34.05 124.65 32.80Q124.65 31.55 125.43 30.70Q126.20 29.85 127.35 29.85Q128.50 29.85 129.28 30.70Q130.05 31.55 130.05 32.80Q130.05 34.05 129.28 34.90Q128.50 35.75 127.35 35.75Q126.20 35.75 125.43 34.90M135.80 45.80Q136.30 45.40 136.70 45.40Q137.40 45.40 137.40 46.30Q137.40 47.55 134.30 50.02Q131.20 52.50 128.95 52.50Q126.70 52.50 125.45 50.90Q124.20 49.30 124.20 46.77Q124.20 44.25 125.05 41.90Q125.90 39.55 126.75 39.55Q127.15 39.60 127.15 40.77Q127.15 41.95 127.50 43.35Q127.85 44.75 129.03 46.02Q130.20 47.30 132.08 47.30Q133.95 47.30 135.80 45.80ZM148.70 44.05L148.50 45.45Q148.50 46.35 149.28 47.32Q150.05 48.30 151.10 48.30Q151.90 48.30 152.40 47.95Q153.50 47.20 153.78 46.92Q154.05 46.65 154.67 46.65Q155.30 46.65 155.30 47.10Q155.30 47.60 152.95 50.25Q152.20 51.10 150.75 52.05Q149.30 53.00 148.17 53.00Q147.05 53.00 146.47 52.62Q145.90 52.25 145.65 51.45Q145.35 50.35 145.35 48.75Q145.35 48.55 145.10 48.55Q144.85 48.55 143.95 49.55Q141.15 52.45 139.42 52.45Q137.70 52.45 136.78 51.55Q135.85 50.65 135.85 49.25Q135.85 46.80 137.15 44.57Q138.45 42.35 140.25 41.00Q144.25 38.05 146.45 38.05Q149.75 38.15 149.75 40.40Q149.75 41.20 149.05 41.97Q148.35 42.75 147.75 42.75Q147.15 42.75 146.10 41.70Q145.05 40.65 143.80 40.65Q142.55 40.65 141.75 41.67Q140.95 42.70 140.95 44.30Q140.95 46.90 143.70 46.90Q144.80 46.90 145.53 46.35Q146.25 45.80 146.55 45.15Q147.40 43.45 148.10 43.45Q148.70 43.45 148.70 44.05ZM190.60 49.85L190.55 48.70Q189.75 48.80 189.30 48.85Q189.50 49.05 189.75 49.45Q190.15 50.05 190.38 50.05Q190.60 50.05 190.60 49.85M192.10 14.00L191.95 22.90Q191.95 32.00 192.80 43.80Q193.30 43.85 194.22 43.85Q195.15 43.85 195.75 43.37Q196.35 42.90 196.72 42.42Q197.10 41.95 197.50 41.95Q198.40 41.95 198.40 43.95Q197.60 45.10 196.02 46.25Q194.45 47.40 193.05 47.95Q193.20 50.80 193.20 52.60Q193.20 54.40 193.02 54.60Q192.85 54.80 192.30 55.07Q191.75 55.35 191.52 55.35Q191.30 55.35 191.22 55.27Q191.15 55.20 190.25 53.90Q188 50.50 186.75 48.85Q183.25 48.50 179.90 46.30Q179.95 47.60 179.95 49.75Q179.95 58.55 174.90 58.55Q173 58.55 170.65 56.40Q168.30 54.25 166.90 52.25Q165.50 50.25 165.50 50.05Q165.50 49.45 166 49.00Q170.20 45.65 170.55 45.65Q170.75 45.65 171.70 47.07Q172.65 48.50 174.02 49.92Q175.40 51.35 176.65 51.35Q177.65 51.35 177.65 47.95Q177.65 46.50 177.45 44.50Q174.45 41.90 172.45 38.67Q170.45 35.45 170.45 34.15Q170.45 32.85 171.30 31.75Q172.15 30.65 172.70 30.65Q173.25 30.65 173.63 30.82Q174 31.00 174.32 31.25Q174.65 31.50 175.45 32.13Q176.25 32.75 177 33.30L177 33.05Q176.95 31.70 176.70 26.65Q176.45 21.60 176.45 15.65Q176.45 9.70 176.85 8.30Q176.85 7.95 177.97 7.05Q179.10 6.15 179.50 6.15Q179.90 6.15 179.90 6.75Q179.90 6.80 179.75 8.05Q179.25 13.30 179.25 19.82Q179.25 26.35 179.60 35.80Q181.35 37.60 182.52 39.07Q183.70 40.55 183.77 40.60Q183.85 40.65 184 40.77Q184.15 40.90 184.38 41.07Q184.60 41.25 184.92 41.45Q185.25 41.65 185.65 41.87Q186.05 42.10 186.55 42.35Q187.05 42.60 187.65 42.80Q188.95 43.25 190.40 43.55L189.65 14.55Q189.65 13.85 191.10 13.05Q191.50 12.80 191.70 12.80Q192.10 12.80 192.10 14.00ZM209.55 45.20Q207.20 45.20 205.85 44.00Q204.50 42.80 204.30 40.95Q203.50 41.55 203.50 43.17Q203.50 44.80 204.42 46.02Q205.35 47.25 206.72 47.25Q208.10 47.25 208.82 46.55Q209.55 45.85 209.55 45.20M211.50 41.85Q211.65 42.30 211.87 42.30Q212.10 42.30 212.65 42.02Q213.20 41.75 213.60 41.75Q214.00 41.75 214.00 42.25Q214.00 42.75 212.92 43.90Q211.85 45.05 211.10 45.05Q210.05 47.90 207.62 50.32Q205.20 52.75 202.65 52.75Q200.85 52.75 199.65 51.57Q198.45 50.40 198.45 48.12Q198.45 45.85 200.35 43.17Q202.25 40.50 204.25 40.50L204.25 40.30Q204.25 39.20 205.00 38.52Q205.75 37.85 206.85 37.85Q210.25 37.85 211.50 41.85ZM224.55 47.25Q224.55 47.25 224.75 47.25Q224.95 47.25 225.85 46.65Q226.75 46.05 227.30 45.45L227.85 44.90Q228.20 44.55 228.55 44.55Q229.15 44.55 229.15 45.25Q229.15 45.50 229.10 45.65Q227.80 48.80 224.30 50.72Q220.80 52.65 218.05 52.65Q212.70 52.65 212.70 48.45Q212.70 47.90 214.00 46.70Q215.30 45.50 215.90 45.20Q216.30 44.90 216.52 44.90Q216.75 44.90 216.90 45.10Q217.05 45.30 217.25 45.60Q217.45 45.90 217.60 46.10Q217.75 46.30 218.00 46.65Q218.25 47.00 218.52 47.22Q218.80 47.45 219.15 47.65Q219.80 48.15 220.52 48.15Q221.25 48.15 221.25 47.30Q221.25 45.20 219.70 43.67Q218.15 42.15 217.10 42.15Q216.85 42.15 216.60 42.45L214.75 44.30Q214.30 44.75 214.10 44.75Q213.35 44.75 213.35 44.10Q218.70 37.55 219.70 37.55Q221.10 37.55 222.90 39.45Q224.70 41.35 224.70 43.25Q224.70 45.05 224.42 46.00Q224.15 46.95 224.15 47.10Q224.15 47.25 224.55 47.25ZM218.35 35.10Q218.35 34.10 219.95 33.60Q222.40 32.55 227.95 30.35Q228.95 22.75 230.95 22.75Q232.25 22.75 232.25 26.90Q232.25 28.10 232.20 28.70Q239.80 25.80 242.40 25.15Q245.00 24.50 246.55 24.50Q248.90 24.50 248.90 26.20Q248.90 26.75 248.20 27.10Q245.10 28.65 244.35 28.65Q244.20 28.65 243.85 28.42Q243.50 28.20 243.05 28.20Q242.60 28.20 241.20 28.55Q238.35 29.30 231.85 31.45Q231.25 35.35 230.10 37.05Q230.30 42.75 231.60 44.75Q232.20 45.70 233.32 46.40Q234.45 47.10 236.10 47.10Q237.75 47.10 239.35 45.60Q239.65 45.30 239.85 45.30Q240.25 45.30 240.25 45.95Q240.25 48.05 237.45 50.17Q234.65 52.30 232.10 52.30Q227.05 52.30 227.05 44.10Q227.05 38.95 227.65 33Q223.50 34.60 221.52 35.60Q219.55 36.60 219.20 36.60Q218.85 36.60 218.60 36.10Q218.35 35.60 218.35 35.10ZM251.65 44.05L251.45 45.45Q251.45 46.35 252.22 47.32Q253.00 48.30 254.05 48.30Q254.85 48.30 255.35 47.95Q256.45 47.20 256.72 46.92Q257 46.65 257.63 46.65Q258.25 46.65 258.25 47.10Q258.25 47.60 255.90 50.25Q255.15 51.10 253.70 52.05Q252.25 53.00 251.12 53.00Q250.00 53.00 249.42 52.62Q248.85 52.25 248.60 51.45Q248.30 50.35 248.30 48.75Q248.30 48.55 248.05 48.55Q247.80 48.55 246.90 49.55Q244.10 52.45 242.37 52.45Q240.65 52.45 239.72 51.55Q238.80 50.65 238.80 49.25Q238.80 46.80 240.10 44.57Q241.40 42.35 243.20 41.00Q247.20 38.05 249.40 38.05Q252.70 38.15 252.70 40.40Q252.70 41.20 252.00 41.97Q251.30 42.75 250.70 42.75Q250.10 42.75 249.05 41.70Q248.00 40.65 246.75 40.65Q245.50 40.65 244.70 41.67Q243.90 42.70 243.90 44.30Q243.90 46.90 246.65 46.90Q247.75 46.90 248.47 46.35Q249.20 45.80 249.50 45.15Q250.35 43.45 251.05 43.45Q251.65 43.45 251.65 44.05ZM261.80 22.75Q260.40 22.75 259.68 26.00Q258.95 29.25 258.95 32.60Q258.95 35.95 259.65 39.20Q263.10 34.05 263.10 25.40Q263.10 24.15 262.72 23.45Q262.35 22.75 261.80 22.75M266.65 47.05Q267.45 47.05 268.95 46.45Q270.45 45.85 271 45.85Q271.55 45.85 271.55 46.35Q271.55 47.50 268.43 49.72Q265.30 51.95 263.40 51.95Q261.50 51.95 260.30 51.35Q259.10 50.75 258.38 49.57Q257.65 48.40 257.20 47.25Q256.75 46.10 256.60 44.45Q256.30 41.90 256.30 38.50Q256.30 35.10 257.20 30.35Q258.10 25.60 259.72 22.30Q261.35 19.00 263.15 18.90Q263.65 18.95 263.97 19.07Q264.30 19.20 264.63 19.92Q264.95 20.65 264.95 22.00Q264.95 34.30 260.10 40.90Q262.10 47.05 266.65 47.05Z"/></g></g></svg>